<?xml version="1.0" encoding="UTF-8" standalone="no"?>
<!-- Created with Inkscape (http://www.inkscape.org/) -->

<svg
   xmlns:dc="http://purl.org/dc/elements/1.1/"
   xmlns:cc="http://creativecommons.org/ns#"
   xmlns:rdf="http://www.w3.org/1999/02/22-rdf-syntax-ns#"
   xmlns:svg="http://www.w3.org/2000/svg"
   xmlns="http://www.w3.org/2000/svg"
   xmlns:xlink="http://www.w3.org/1999/xlink"
   xmlns:sodipodi="http://sodipodi.sourceforge.net/DTD/sodipodi-0.dtd"
   xmlns:inkscape="http://www.inkscape.org/namespaces/inkscape"
   width="104.81179mm"
   height="14.056225mm"
   viewBox="0 0 104.81179 14.056225"
   version="1.1"
   id="svg838"
   inkscape:version="0.92.5 (2060ec1f9f, 2020-04-08)"
   sodipodi:docname="logo.light.shapes.svg"
   inkscape:export-filename="/home/henning/Projects/capybara-lockstep/media/capybara-lockstep3.light.png"
   inkscape:export-xdpi="196"
   inkscape:export-ydpi="196">
  <defs
     id="defs832">
    <linearGradient
       inkscape:collect="always"
       id="linearGradient1406">
      <stop
         style="stop-color:#ff0844;stop-opacity:1"
         offset="0"
         id="stop1402" />
      <stop
         style="stop-color:#ffb199;stop-opacity:1"
         offset="1"
         id="stop1404" />
    </linearGradient>
    <linearGradient
       inkscape:collect="always"
       xlink:href="#linearGradient1406"
       id="linearGradient1408"
       x1="22.054907"
       y1="91.071762"
       x2="88.956696"
       y2="91.071762"
       gradientUnits="userSpaceOnUse"
       gradientTransform="matrix(1.5669009,0,0,0.08820435,-34.557856,57.908781)" />
  </defs>
  <sodipodi:namedview
     id="base"
     pagecolor="#ffffff"
     bordercolor="#666666"
     borderopacity="1.0"
     inkscape:pageopacity="0.0"
     inkscape:pageshadow="2"
     inkscape:zoom="1.979899"
     inkscape:cx="138.78085"
     inkscape:cy="66.350889"
     inkscape:document-units="mm"
     inkscape:current-layer="layer1"
     showgrid="false"
     fit-margin-top="0"
     fit-margin-left="0"
     fit-margin-right="0"
     fit-margin-bottom="0"
     inkscape:window-width="2560"
     inkscape:window-height="1391"
     inkscape:window-x="1920"
     inkscape:window-y="0"
     inkscape:window-maximized="1" />
  <metadata
     id="metadata835">
    <rdf:RDF>
      <cc:Work
         rdf:about="">
        <dc:format>image/svg+xml</dc:format>
        <dc:type
           rdf:resource="http://purl.org/dc/dcmitype/StillImage" />
        <dc:title></dc:title>
      </cc:Work>
    </rdf:RDF>
  </metadata>
  <g
     inkscape:label="Layer 1"
     inkscape:groupmode="layer"
     id="layer1"
     transform="translate(0,-52.518951)">
    <g
       aria-label="RAILS STATE MACHINE"
       style="font-style:normal;font-variant:normal;font-weight:normal;font-stretch:normal;font-size:10.58333302px;line-height:1.25;font-family:'League Spartan';-inkscape-font-specification:'League Spartan';letter-spacing:0px;word-spacing:0px;fill:#141210;fill-opacity:1;stroke:none;stroke-width:0.26458332"
       id="text1385">
      <path
         d="M 0.13229166,52.645951 H 2.9792082 q 0.6085417,0 1.0847917,0.254 0.47625,0.254 0.7514166,0.735542 0.2804583,0.47625 0.2804583,1.137708 0,0.661458 -0.2381249,1.084792 -0.2328334,0.418041 -0.5609167,0.629708 -0.3280833,0.206375 -0.6085416,0.248708 l 1.6986249,2.894542 H 3.6089166 L 2.0954999,56.858118 h -0.381 v 2.772833 H 0.13229166 Z m 1.58220824,3.116792 h 0.6985 q 0.4233333,0 0.7408333,-0.206375 0.3175,-0.206375 0.3175,-0.73025 0,-0.523875 -0.3122083,-0.724959 Q 2.8469166,53.894784 2.4235833,53.894784 H 1.7144999 Z"
         style="font-style:normal;font-variant:normal;font-weight:bold;font-stretch:normal;font-family:'League Spartan';-inkscape-font-specification:'League Spartan';fill:#141210;fill-opacity:1;stroke-width:0.26458332"
         id="path822" />
      <path
         d="m 8.1809058,52.645951 h 1.5716249 l 2.7569583,6.985 h -1.688042 l -0.508,-1.402292 H 7.6252808 L 7.1119891,59.630951 H 5.4186559 Z m -0.026458,4.196292 h 1.635125 l -0.809625,-2.291292 h -0.015875 z"
         style="font-style:normal;font-variant:normal;font-weight:bold;font-stretch:normal;font-family:'League Spartan';-inkscape-font-specification:'League Spartan';fill:#141210;fill-opacity:1;stroke-width:0.26458332"
         id="path824" />
      <path
         d="m 13.123312,52.645951 h 1.582208 v 6.985 h -1.582208 z"
         style="font-style:normal;font-variant:normal;font-weight:bold;font-stretch:normal;font-family:'League Spartan';-inkscape-font-specification:'League Spartan';fill:#141210;fill-opacity:1;stroke-width:0.26458332"
         id="path826" />
      <path
         d="m 15.97021,52.645951 h 1.582208 v 5.598583 h 2.534708 v 1.386417 H 15.97021 Z"
         style="font-style:normal;font-variant:normal;font-weight:bold;font-stretch:normal;font-family:'League Spartan';-inkscape-font-specification:'League Spartan';fill:#141210;fill-opacity:1;stroke-width:0.26458332"
         id="path828" />
      <path
         d="m 23.658998,52.518951 q 0.650875,0 1.137709,0.142875 0.486833,0.142875 0.783166,0.301625 0.296334,0.15875 0.359834,0.211667 l -0.762,1.275291 q -0.08467,-0.0635 -0.291042,-0.185208 -0.201083,-0.121708 -0.481542,-0.216958 -0.275166,-0.09525 -0.576791,-0.09525 -0.407459,0 -0.661459,0.148166 -0.248708,0.142875 -0.248708,0.428625 0,0.195792 0.132292,0.354542 0.137583,0.153458 0.41275,0.296333 0.280458,0.137584 0.709083,0.301625 0.391583,0.142875 0.735542,0.338667 0.343958,0.195792 0.60325,0.465667 0.264583,0.264583 0.418041,0.613833 0.153459,0.34925 0.153459,0.79375 0,0.529167 -0.216959,0.92075 -0.216958,0.386292 -0.592666,0.640292 -0.370417,0.254 -0.846667,0.375708 -0.470958,0.127 -0.978958,0.127 -0.719667,0 -1.291167,-0.164042 -0.566208,-0.164041 -0.915458,-0.354541 -0.34925,-0.1905 -0.418042,-0.254 l 0.788458,-1.328209 q 0.0635,0.04762 0.243417,0.153459 0.185208,0.105833 0.449792,0.22225 0.264583,0.111125 0.560916,0.1905 0.301625,0.07937 0.592667,0.07937 0.486833,0 0.73025,-0.185209 0.243417,-0.1905 0.243417,-0.497416 0,-0.227542 -0.153459,-0.407459 -0.153458,-0.179916 -0.460375,-0.338666 -0.306916,-0.164042 -0.767291,-0.343959 -0.460375,-0.185208 -0.862542,-0.449791 -0.396875,-0.264584 -0.645583,-0.661459 -0.248709,-0.396875 -0.248709,-0.98425 0,-0.587375 0.328084,-1.016 0.333375,-0.433916 0.873125,-0.66675 0.545041,-0.232833 1.164166,-0.232833 z"
         style="font-style:normal;font-variant:normal;font-weight:bold;font-stretch:normal;font-family:'League Spartan';-inkscape-font-specification:'League Spartan';fill:#141210;fill-opacity:1;stroke-width:0.26458332"
         id="path830" />
      <path
         d="m 32.384947,52.518951 q 0.650875,0 1.137708,0.142875 0.486833,0.142875 0.783167,0.301625 0.296333,0.15875 0.359833,0.211667 l -0.762,1.275291 q -0.08467,-0.0635 -0.291042,-0.185208 -0.201083,-0.121708 -0.481541,-0.216958 -0.275167,-0.09525 -0.576792,-0.09525 -0.407458,0 -0.661458,0.148166 -0.248709,0.142875 -0.248709,0.428625 0,0.195792 0.132292,0.354542 0.137583,0.153458 0.41275,0.296333 0.280458,0.137584 0.709083,0.301625 0.391584,0.142875 0.735542,0.338667 0.343958,0.195792 0.60325,0.465667 0.264583,0.264583 0.418042,0.613833 0.153458,0.34925 0.153458,0.79375 0,0.529167 -0.216958,0.92075 -0.216959,0.386292 -0.592667,0.640292 -0.370417,0.254 -0.846667,0.375708 -0.470958,0.127 -0.978958,0.127 -0.719667,0 -1.291167,-0.164042 -0.566208,-0.164041 -0.915458,-0.354541 -0.34925,-0.1905 -0.418042,-0.254 l 0.788459,-1.328209 q 0.0635,0.04762 0.243416,0.153459 0.185209,0.105833 0.449792,0.22225 0.264583,0.111125 0.560917,0.1905 0.301625,0.07937 0.592666,0.07937 0.486834,0 0.73025,-0.185209 0.243417,-0.1905 0.243417,-0.497416 0,-0.227542 -0.153458,-0.407459 -0.153459,-0.179916 -0.460375,-0.338666 -0.306917,-0.164042 -0.767292,-0.343959 -0.460375,-0.185208 -0.862542,-0.449791 -0.396875,-0.264584 -0.645583,-0.661459 -0.248708,-0.396875 -0.248708,-0.98425 0,-0.587375 0.328083,-1.016 0.333375,-0.433916 0.873125,-0.66675 0.545042,-0.232833 1.164167,-0.232833 z"
         style="font-style:normal;font-variant:normal;font-weight:bold;font-stretch:normal;font-family:'League Spartan';-inkscape-font-specification:'League Spartan';fill:#141210;fill-opacity:1;stroke-width:0.26458332"
         id="path832" />
      <path
         d="m 37.062776,54.032368 h -1.666874 v -1.386417 h 4.910666 v 1.386417 h -1.661583 v 5.598583 h -1.582209 z"
         style="font-style:normal;font-variant:normal;font-weight:bold;font-stretch:normal;font-family:'League Spartan';-inkscape-font-specification:'League Spartan';fill:#141210;fill-opacity:1;stroke-width:0.26458332"
         id="path834" />
      <path
         d="m 42.650742,52.645951 h 1.571624 l 2.756959,6.985 h -1.688042 l -0.508,-1.402292 h -2.688166 l -0.513292,1.402292 h -1.693333 z m -0.02646,4.196292 h 1.635125 l -0.809625,-2.291292 h -0.01587 z"
         style="font-style:normal;font-variant:normal;font-weight:bold;font-stretch:normal;font-family:'League Spartan';-inkscape-font-specification:'League Spartan';fill:#141210;fill-opacity:1;stroke-width:0.26458332"
         id="path836" />
      <path
         d="m 48.159342,54.032368 h -1.666875 v -1.386417 h 4.910666 v 1.386417 H 49.74155 v 5.598583 h -1.582208 z"
         style="font-style:normal;font-variant:normal;font-weight:bold;font-stretch:normal;font-family:'League Spartan';-inkscape-font-specification:'League Spartan';fill:#141210;fill-opacity:1;stroke-width:0.26458332"
         id="path838" />
      <path
         d="m 52.255076,52.645951 h 4.460874 v 1.386417 h -2.883958 v 1.423458 h 2.8575 v 1.344083 h -2.8575 v 1.444625 h 2.883958 v 1.386417 h -4.460874 z"
         style="font-style:normal;font-variant:normal;font-weight:bold;font-stretch:normal;font-family:'League Spartan';-inkscape-font-specification:'League Spartan';fill:#141210;fill-opacity:1;stroke-width:0.26458332"
         id="path840" />
      <path
         d="m 68.156508,52.645951 v 6.985 h -1.576916 v -4.111625 l 0.06879,-1.169458 -0.269875,1.338791 -1.17475,3.381375 H 63.6533 l -1.169458,-3.381375 -0.264584,-1.338791 0.06879,1.169458 v 4.111625 h -1.582208 v -6.985 h 2.2225 l 1.407583,4.661958 0.09525,0.555625 0.09525,-0.555625 1.407583,-4.661958 z"
         style="font-style:normal;font-variant:normal;font-weight:bold;font-stretch:normal;font-family:'League Spartan';-inkscape-font-specification:'League Spartan';fill:#141210;fill-opacity:1;stroke-width:0.26458332"
         id="path842" />
      <path
         d="m 71.680744,52.645951 h 1.571625 l 2.756958,6.985 h -1.688041 l -0.508,-1.402292 h -2.688167 l -0.513292,1.402292 h -1.693333 z m -0.02646,4.196292 h 1.635125 l -0.809625,-2.291292 h -0.01588 z"
         style="font-style:normal;font-variant:normal;font-weight:bold;font-stretch:normal;font-family:'League Spartan';-inkscape-font-specification:'League Spartan';fill:#141210;fill-opacity:1;stroke-width:0.26458332"
         id="path844" />
      <path
         d="m 79.956888,58.191618 q 0.486833,0 0.883708,-0.142875 0.402167,-0.142875 0.597958,-0.280459 l 0.677334,1.344084 q -0.248709,0.211666 -0.851959,0.428625 -0.597958,0.216958 -1.423458,0.216958 -0.772583,0 -1.449916,-0.269875 -0.677334,-0.269875 -1.195917,-0.756708 -0.513292,-0.492125 -0.809625,-1.148292 -0.291042,-0.661458 -0.291042,-1.434042 0,-0.772583 0.291042,-1.434041 0.291042,-0.66675 0.804333,-1.158875 0.518584,-0.492125 1.195917,-0.762 0.682625,-0.275167 1.455208,-0.275167 0.8255,0 1.423458,0.216958 0.60325,0.216959 0.851959,0.428625 l -0.677334,1.344084 q -0.195791,-0.142875 -0.597958,-0.280459 -0.396875,-0.142875 -0.883708,-0.142875 -0.53975,0 -0.941917,0.169334 -0.402166,0.164041 -0.672041,0.455083 -0.269875,0.291042 -0.402167,0.656167 -0.132292,0.365125 -0.132292,0.767291 0,0.407459 0.132292,0.777875 0.132292,0.365125 0.402167,0.656167 0.269875,0.291042 0.672041,0.460375 0.402167,0.164042 0.941917,0.164042 z"
         style="font-style:normal;font-variant:normal;font-weight:bold;font-stretch:normal;font-family:'League Spartan';-inkscape-font-specification:'League Spartan';fill:#141210;fill-opacity:1;stroke-width:0.26458332"
         id="path846" />
      <path
         d="m 87.068875,56.821076 h -2.413 v 2.809875 h -1.576916 v -6.985 h 1.576916 v 2.794 h 2.413 v -2.794 H 88.6405 v 6.985 h -1.571625 z"
         style="font-style:normal;font-variant:normal;font-weight:bold;font-stretch:normal;font-family:'League Spartan';-inkscape-font-specification:'League Spartan';fill:#141210;fill-opacity:1;stroke-width:0.26458332"
         id="path848" />
      <path
         d="m 89.894606,52.645951 h 1.582208 v 6.985 h -1.582208 z"
         style="font-style:normal;font-variant:normal;font-weight:bold;font-stretch:normal;font-family:'League Spartan';-inkscape-font-specification:'League Spartan';fill:#141210;fill-opacity:1;stroke-width:0.26458332"
         id="path850" />
      <path
         d="m 94.164959,54.095868 0.116417,0.02117 v 5.513917 h -1.582209 v -6.985 h 2.159 l 2.831042,5.503333 -0.116417,0.02117 v -5.5245 h 1.582209 v 6.985 h -2.169584 z"
         style="font-style:normal;font-variant:normal;font-weight:bold;font-stretch:normal;font-family:'League Spartan';-inkscape-font-specification:'League Spartan';fill:#141210;fill-opacity:1;stroke-width:0.26458332"
         id="path852" />
      <path
         d="m 100.35092,52.645951 h 4.46087 v 1.386417 h -2.88396 v 1.423458 h 2.8575 v 1.344083 h -2.8575 v 1.444625 h 2.88396 v 1.386417 h -4.46087 z"
         style="font-style:normal;font-variant:normal;font-weight:bold;font-stretch:normal;font-family:'League Spartan';-inkscape-font-specification:'League Spartan';fill:#141210;fill-opacity:1;stroke-width:0.26458332"
         id="path854" />
    </g>
    <rect
       style="fill:url(#linearGradient1408);fill-opacity:1;stroke:none;stroke-width:0.03717625;stroke-miterlimit:4;stroke-dasharray:none;stroke-opacity:1"
       id="rect1387"
       width="104.82847"
       height="1.2668874"
       x="-3.5527137e-15"
       y="65.308289" />
  </g>
</svg>
